<svg viewBox="0 0 720 400" xmlns="http://www.w3.org/2000/svg" role="img" aria-label="HellzGate C5 OLED glance screen">
<rect width="720" height="400" fill="#0d0d0f"/>
<rect x="34" y="20" width="652" height="352" rx="22" fill="#323232" stroke="#565656" stroke-width="2"/>
<rect x="60" y="44" width="600" height="300" rx="8" fill="#000000"/>
<text x="79" y="86" font-family="sans-serif" font-size="40" font-weight="600" fill="#FFFFFF">78&#176;C</text>
<g transform="translate(615,70)">
<circle cx="0" cy="0" r="21" fill="none" stroke="#FFFFFF" stroke-width="2.5"/>
<ellipse cx="0" cy="0" rx="16" ry="6" fill="#FFFFFF"/>
<ellipse cx="0" cy="0" rx="6" ry="16" fill="#FFFFFF"/>
<circle cx="0" cy="0" r="4.5" fill="#000000"/>
</g>
<line x1="79" y1="104" x2="641" y2="104" stroke="#3C3C3C" stroke-width="2"/>
<text x="79" y="176" font-family="sans-serif" font-size="44" fill="#FFFFFF">WiFi</text>
<text x="641" y="176" text-anchor="end" font-family="sans-serif" font-size="64" font-weight="600" fill="#FFFFFF">247</text>
<text x="79" y="250" font-family="sans-serif" font-size="44" fill="#FFFFFF">BLE</text>
<text x="641" y="250" text-anchor="end" font-family="sans-serif" font-size="64" font-weight="600" fill="#FFFFFF">63</text>
<text x="79" y="296" font-family="sans-serif" font-size="30" fill="#B4B4B4">hits 892</text>
<text x="641" y="296" text-anchor="end" font-family="sans-serif" font-size="27" fill="#FFFFFF">GPS &#10003;  SD &#10003;</text>
<line x1="79" y1="308" x2="641" y2="308" stroke="#4A4A4A" stroke-width="2"/>
<text x="79" y="336" font-family="sans-serif" font-size="24" fill="#FFFFFF">NODES</text>
<circle cx="252" cy="329" r="9" fill="#FFFFFF"/><circle cx="296" cy="329" r="9" fill="#FFFFFF"/>
<circle cx="340" cy="329" r="9" fill="#FFFFFF"/><circle cx="384" cy="329" r="9" fill="#FFFFFF"/>
<circle cx="428" cy="329" r="9" fill="#FFFFFF"/><circle cx="472" cy="329" r="9" fill="#FFFFFF"/>
<circle cx="516" cy="329" r="9" fill="#FFFFFF"/><circle cx="560" cy="329" r="9" fill="#FFFFFF"/>
<circle cx="604" cy="329" r="8" fill="#000000" stroke="#FFFFFF" stroke-width="2"/>
</svg>
